<?xml version="1.0" encoding="UTF-8"?>
<!DOCTYPE svg PUBLIC "-//W3C//DTD SVG 1.1//EN" "http://www.w3.org/Graphics/SVG/1.1/DTD/svg11.dtd">
<!-- Creator: CorelDRAW (OEM Version) -->
<svg xmlns="http://www.w3.org/2000/svg" xml:space="preserve" width="7.78595in" height="2.72359in" version="1.1" style="shape-rendering:geometricPrecision; text-rendering:geometricPrecision; image-rendering:optimizeQuality; fill-rule:evenodd; clip-rule:evenodd"
viewBox="0 0 7785.95 2723.59"
 xmlns:xlink="http://www.w3.org/1999/xlink"
 xmlns:xodm="http://www.corel.com/coreldraw/odm/2003">
 <defs>
  <style type="text/css">
   <![CDATA[
    .str14 {stroke:hsl(275, 64%, 50%);stroke-width:3;stroke-miterlimit:10}
    .str13 {stroke:hsl(275, 64%, 50%);stroke-width:3;stroke-miterlimit:10}
    .str5 {stroke:hsl(275, 64%, 50%);stroke-width:3;stroke-miterlimit:10}
    .str6 {stroke:hsl(275, 64%, 50%);stroke-width:3;stroke-miterlimit:10}
    .str0 {stroke:hsl(275, 64%, 50%);stroke-width:3;stroke-miterlimit:10}
    .str1 {stroke:hsl(275, 64%, 50%);stroke-width:3;stroke-miterlimit:10}
    .str4 {stroke:hsl(275, 64%, 50%);stroke-width:3;stroke-miterlimit:10}
    .str2 {stroke:hsl(275, 64%, 50%);stroke-width:3;stroke-miterlimit:10}
    .str7 {stroke:hsl(275, 64%, 50%);stroke-width:3;stroke-miterlimit:10}
    .str12 {stroke:hsl(275, 64%, 50%);stroke-width:3;stroke-miterlimit:10}
    .str10 {stroke:hsl(275, 64%, 50%);stroke-width:3;stroke-miterlimit:10}
    .str11 {stroke:hsl(275, 64%, 50%);stroke-width:3;stroke-miterlimit:10}
    .str9 {stroke:hsl(275, 64%, 50%);stroke-width:3;stroke-miterlimit:10}
    .str3 {stroke:hsl(275, 64%, 50%);stroke-width:3;stroke-miterlimit:10}
    .str8 {stroke:hsl(275, 64%, 50%);stroke-width:3;stroke-miterlimit:10}
    .fil0 {fill:none}
   ]]>
  </style>
 </defs>
 <g id="Layer_x0020_1">
  <metadata id="CorelCorpID_0Corel-Layer"/>
  <g id="_2164945581152">
   <g>
    <path class="fil0 str0" d="M1361.8 10.42c746.35,0 1351.38,605.03 1351.38,1351.38 0,746.35 -605.03,1351.38 -1351.38,1351.38 -746.35,0 -1351.38,-605.03 -1351.38,-1351.38 0,-746.35 605.03,-1351.38 1351.38,-1351.38z"/>
    <path class="fil0 str1" d="M1361.8 2301.68c-519.08,0 -939.88,-420.8 -939.88,-939.88 0,-519.08 420.8,-939.88 939.88,-939.88 519.08,0 939.88,420.8 939.88,939.88 0,519.08 -420.8,939.88 -939.88,939.88z"/>
    <path class="fil0 str2" d="M2612.13 2253.85c290.87,-131.68 587.12,-266.57 656.83,-336.27 142.23,-142.24 230.2,-338.74 230.2,-555.78 0,-217.04 -87.97,-413.54 -230.2,-555.78 -8.03,-8.03 -19.15,-16.94 -32.83,-26.6 -55.46,15.94 -108.87,33.72 -159.98,53.17l-7.37 -16.39c-51.35,-114.25 -232.88,-37.29 -217.72,-237.33 -76.73,-35.64 -158.03,-72.51 -238.92,-109.13 237.41,223.35 385.7,540.36 385.7,892.04 0,351.69 -148.29,668.71 -385.71,892.05z"/>
    <path class="fil0 str3" d="M2116.96 186.13c509.01,148.55 880.88,618.68 880.88,1175.67 0,556.98 -371.85,1027.1 -880.84,1175.66l-310.63 100.93c54.53,-19.03 107.48,-41.42 158.59,-66.95 443.59,-221.62 748.22,-680.06 748.22,-1209.64 0,-529.59 -304.63,-988.02 -748.22,-1209.64 -51.1,-25.53 -104.05,-47.92 -158.59,-66.91l310.59 100.88z"/>
    <path class="fil0 str1" d="M1361.8 2301.68c-519.08,0 -939.88,-420.8 -939.88,-939.88 0,-519.08 420.8,-939.88 939.88,-939.88 519.08,0 939.88,420.8 939.88,939.88 0,519.08 -420.8,939.88 -939.88,939.88z"/>
    <path class="fil0 str4" d="M706.58 1361.8c0,-470.7 346.01,-860.58 797.55,-929.18 -46.41,-7.05 -93.95,-10.7 -142.33,-10.7 -519.08,0 -939.88,420.8 -939.88,939.88 0,519.08 420.8,939.88 939.88,939.88 48.38,0 95.92,-3.65 142.33,-10.7 -451.54,-68.6 -797.55,-458.48 -797.55,-929.18z"/>
    <path class="fil0 str5" d="M6424.16 10.42c-746.35,0 -1351.38,605.03 -1351.38,1351.38 0,746.35 605.03,1351.38 1351.38,1351.38 746.35,0 1351.38,-605.03 1351.38,-1351.38 0,-746.35 -605.03,-1351.38 -1351.38,-1351.38z"/>
    <path class="fil0 str6" d="M6424.16 2301.68c519.08,0 939.88,-420.8 939.88,-939.88 0,-519.08 -420.8,-939.88 -939.88,-939.88 -519.08,0 -939.88,420.8 -939.88,939.88 0,519.08 420.8,939.88 939.88,939.88z"/>
    <path class="fil0 str7" d="M5173.83 2253.85c-290.87,-131.68 -587.12,-266.57 -656.83,-336.27 -142.23,-142.24 -230.2,-338.74 -230.2,-555.78 0,-217.04 87.97,-413.54 230.2,-555.78 12.92,-12.91 33.66,-28.08 60.65,-45.04 45.91,11.63 90.57,24.48 133.83,38.47l5.69 -11.16c51.35,-100.81 232.88,-32.91 217.72,-209.41 76.73,-35.64 158.03,-72.51 238.92,-109.13 -237.42,223.35 -385.71,540.36 -385.71,892.04 0,351.69 148.29,668.71 385.71,892.05z"/>
    <path class="fil0 str8" d="M5668.99 186.13c-509.01,148.55 -880.88,618.68 -880.88,1175.67 0,556.98 371.85,1027.1 880.84,1175.66l310.63 100.93c-54.53,-19.03 -107.48,-41.42 -158.59,-66.95 -443.59,-221.62 -748.22,-680.06 -748.22,-1209.64 0,-529.59 304.63,-988.02 748.22,-1209.64 51.1,-25.53 104.05,-47.92 158.59,-66.91l-310.59 100.88z"/>
    <path class="fil0 str6" d="M6424.16 2301.68c519.08,0 939.88,-420.8 939.88,-939.88 0,-519.08 -420.8,-939.88 -939.88,-939.88 -519.08,0 -939.88,420.8 -939.88,939.88 0,519.08 420.8,939.88 939.88,939.88z"/>
    <path class="fil0 str9" d="M7079.37 1361.8c0,-470.7 -346.01,-860.58 -797.55,-929.18 46.41,-7.05 93.95,-10.7 142.33,-10.7 519.08,0 939.88,420.8 939.88,939.88 0,519.08 -420.8,939.88 -939.88,939.88 -48.38,0 -95.92,-3.65 -142.33,-10.7 451.54,-68.6 797.55,-458.48 797.55,-929.18z"/>
    <path class="fil0 str10" d="M3593.53 1694.91c145.3,-41.08 251.76,-174.67 251.76,-333.11 0,-155.54 -102.6,-287.13 -243.81,-330.76l-0.01 -0 -1.51 -0.46 1.5 0.46 -236.89 -109.21c21.94,32.43 41.54,66.58 58.52,102.22 48.77,102.32 76.06,216.85 76.06,337.75 0,120.9 -27.3,235.43 -76.06,337.75 -16.65,34.94 -35.8,68.46 -57.23,100.32l227.67 -104.96z"/>
    <path class="fil0 str11" d="M4192.42 1694.91c-145.3,-41.08 -251.76,-174.67 -251.76,-333.11 0,-155.54 102.6,-287.13 243.81,-330.76l0.01 -0 1.51 -0.46 -1.5 0.46 236.89 -109.21c-21.94,32.43 -41.54,66.58 -58.52,102.22 -48.77,102.32 -76.06,216.85 -76.06,337.75 0,120.9 27.3,235.43 76.06,337.75 16.65,34.94 35.8,68.46 57.23,100.32l-227.67 -104.96z"/>
    <path class="fil0 str12" d="M2851.05 578.88c-15.16,200.04 166.37,123.08 217.72,237.33l7.37 16.39c51.11,-19.46 104.54,-37.23 160.01,-53.19l0 -0c210.41,-60.52 450.27,-94.78 704.83,-94.78 227.46,0 443.18,27.36 636.65,76.36 45.92,11.63 90.59,24.48 133.86,38.47l5.69 -11.16c51.35,-100.81 232.89,-32.91 217.72,-209.41 -292.67,-115.55 -652.67,-183.69 -1041.93,-183.69 -389.25,0 -749.26,68.14 -1041.93,183.69z"/>
   </g>
   <path class="fil0 str13" d="M1079.54 1149.59c7.78,6.3 31.08,-24.94 41.83,-40.76 26.33,-38.78 84.4,-103.93 100.58,-188.54 25.05,-130.87 -118.43,-58.45 -154.83,51.72 -30.95,93.67 -11.21,158.48 12.43,177.59z"/>
   <path class="fil0 str13" d="M1521.37 641.8c11.36,3.05 -23.55,28.54 -39.3,39.17 -33.46,22.61 -74.24,58.72 -124.9,69.92 -54.69,12.09 -52.13,-40.88 -3.52,-70.42 61.45,-37.33 135.36,-47.35 167.72,-38.68z"/>
   <path class="fil0 str13" d="M6753.5 1149.59c-7.78,6.3 -31.08,-24.94 -41.83,-40.76 -26.33,-38.78 -84.4,-103.93 -100.58,-188.54 -25.05,-130.87 118.43,-58.45 154.83,51.72 30.95,93.67 11.21,158.48 -12.43,177.59z"/>
   <path class="fil0 str13" d="M6311.66 641.8c-11.36,3.05 23.55,28.54 39.3,39.17 33.46,22.61 74.24,58.72 124.9,69.92 54.69,12.09 52.13,-40.88 3.52,-70.42 -61.45,-37.33 -135.36,-47.35 -167.72,-38.68z"/>
   <path class="fil0 str14" d="M4448.67 883.96c21.06,-27.46 43.9,-53.5 68.33,-77.94 12.91,-12.91 33.66,-28.09 60.63,-45.05 -193.47,-49 -409.19,-76.35 -636.65,-76.35 -254.57,0 -494.42,34.27 -704.87,94.8 13.69,9.65 24.8,18.57 32.83,26.6 28.65,28.65 55.09,59.49 79.05,92.25 179.64,-41.01 376.92,-63.67 583.94,-63.67 181.5,0 355.53,17.42 516.73,49.35z"/>
  </g>
 </g>
</svg>
